{"title":"Naruto (2002) Season 1 720p HEVC [x265] (Eng) Download","uid":14711230,"size":3384138804,"categoryP":"video","categoryS":"tv_shows","magnet":"?xt=urn:btih:bec34e200590bfcf0406a0217b91e7820e0791f1&amp;dn=Naruto+%282002%29+Season+1+720p+HEVC+%5Bx265%5D+%28Eng%29+Download&amp;tr=udp%3A%2F%2Ftracker.leechers-paradise.org%3A6969&amp;tr=udp%3A%2F%2Fzer0day.ch%3A1337&amp;tr=udp%3A%2F%2Fopen.demonii.com%3A1337&amp;tr=udp%3A%2F%2Ftracker.coppersurfer.tk%3A6969&amp;tr=udp%3A%2F%2Fexodus.desync.com%3A6969","seeders":8,"leechers":7,"uploader":"GamePersia","files":36,"time":1464425617,"description":"Naruto (2002) Season 1 (001-035) 720p HEVC [x265] (Eng) Download  \nhttp://i.imgur.com/xyw022x.jpg\r\n \nhttp://www.imdb.com/title/tt0409591/ \r\nFollows the struggles of three young ninjas - Naruto Uzumaki, Sasuke Uchiha and Sakura Haruno - as they go through their training. \r\n\r\nGeneral \r\n\r\nFormat                                   : Matroska \r\nFormat version                           : Version 4 / Version 2 \r\nDuration                                 : 23mn 36s \r\nOverall bit rate                         : 523 Kbps \r\n\r\nVideo \r\nFormat                                   : HEVC \r\nFormat/Info                              : High Efficiency Video Coding \r\nFormat profile                           :   @Main \r\nCodec ID                                 : V_MPEGH/ISO/HEVC \r\nDuration                                 : 23mn 35s \r\nBit rate                                 : 449 Kbps \r\nWidth                                    : 960 pixels \r\nHeight                                   : 720 pixels \r\nDisplay aspect ratio                     : 4:3 \r\nFrame rate mode                          : Constant \r\nFrame rate                               : 23.976 (24000/1001) fps \r\nColor space                              : YUV \r\nChroma subsampling                       : 4:2:0 \r\nBit depth                                : 8 bits \r\nBits/(Pixel*Frame)                       : 0.027 \r\nStream size                              : 75.9 MiB (86%) \r\nDefault                                  : Yes \r\nForced                                   : No \r\n\r\nAudio \r\nFormat                                   : AAC \r\nFormat/Info                              : Advanced Audio Codec \r\nFormat profile                           : HE-AAC / LC \r\nCodec ID                                 : A_AAC \r\nDuration                                 : 23mn 36s \r\nBit rate                                 : 72.0 Kbps \r\nChannel(s)                               : 2 channels \r\nChannel positions                        : Front: L R \r\nSampling rate                            : 48.0 KHz / 24.0 KHz \r\nFrame rate                               : 23.438 fps (1024 spf) \r\nCompression mode                         : Lossy \r\nStream size                              : 12.1 MiB (14%) \r\nLanguage                                 : English \r\nDefault                                  : Yes \r\nForced                                   : No \r\n\r\nText \r\nID                                       : 3 \r\nFormat                                   : UTF-8 \r\nCodec ID                                 : S_TEXT/UTF8 \r\nCodec ID/Info                            : UTF-8 Plain Text \r\nDuration                                 : 23mn 27s \r\nBit rate                                 : 59 bps \r\nCount of elements                        : 302 \r\nStream size                              : 10.2 KiB (0%) \r\nLanguage                                 : English \r\nDefault                                  : No \r\nForced                                   : No \r\n \nhttp://i.imgur.com/x4G4hRL.png \nhttp://i.imgur.com/VThKhR1.png\r\n \nhttp://i.imgur.com/B53eHrn.png\r\nSeed Atleast 2 Gb To Aid The Files For Future Downloads Also \r\nIf You Like Our Work For You, Appreciate Us By Writing A Comment","torrent":{"xt":"urn:btih:bec34e200590bfcf0406a0217b91e7820e0791f1","amp;dn":"Naruto+%282002%29+Season+1+720p+HEVC+%5Bx265%5D+%28Eng%29+Download","amp;tr":["udp%3A%2F%2Ftracker.leechers-paradise.org%3A6969","udp%3A%2F%2Fzer0day.ch%3A1337","udp%3A%2F%2Fopen.demonii.com%3A1337","udp%3A%2F%2Ftracker.coppersurfer.tk%3A6969","udp%3A%2F%2Fexodus.desync.com%3A6969"],"infoHash":"bec34e200590bfcf0406a0217b91e7820e0791f1","infoHashBuffer":{"type":"Buffer","data":[190,195,78,32,5,144,191,207,4,6,160,33,123,145,231,130,14,7,145,241]},"announce":[],"urlList":[]}}